# xmcd CD database file
# Copyright (C) 1997 Ti Kan
# 
# Track frame offsets:
#     150
#     2157
#     14342
#     24830
#     35282
#     42032
#     54885
#     69210
#     85180
#     95577
#     107397
#     118022
#     128662
#     143347
# 
# Disc length: 2049 seconds
# 
# Revision: 1
# Processed by: cddbd v1.4b41PL1 Copyright (c) Steve Scherf et al.
# Submitted via: DiscPlay 4.0.4
# 
DISCID=9707ff0e
DTITLE=Charley Pride - In Person Recorded Live Panther Hall Fort Worth, Texa
DYEAR=1900
DGENRE=
TTITLE0=Intro By Bo Powell
TTITLE1=Last Thing On My Mind, The
TTITLE2=Just Between You And Me
TTITLE3=I Know One
TTITLE4=Dialogue
TTITLE5=Lovesick Blues
TTITLE6=Image Of Me, The
TTITLE7=Kaw-Liga
TTITLE8=Shutters And Boards
TTITLE9=Six Days On The Road
TTITLE10=Streets Of Baltimore
TTITLE11=Got Leavin' On Her Mind
TTITLE12=Crystal Chandeliers
TTITLE13=Cotton Fields
EXTD=
EXTT0=
EXTT1=
EXTT2=
EXTT3=
EXTT4=
EXTT5=
EXTT6=
EXTT7=
EXTT8=
EXTT9=
EXTT10=
EXTT11=
EXTT12=
EXTT13=
PLAYORDER=
